<?xml version="1.0" encoding="utf-8"?>
<!-- Generator: Adobe Illustrator 18.1.0, SVG Export Plug-In . SVG Version: 6.00 Build 0)  -->
<!DOCTYPE svg PUBLIC "-//W3C//DTD SVG 1.1//EN" "http://www.w3.org/Graphics/SVG/1.1/DTD/svg11.dtd">
<svg version="1.1" id="Layer_1" xmlns="http://www.w3.org/2000/svg" xmlns:xlink="http://www.w3.org/1999/xlink" x="0px" y="0px"
	 viewBox="0 94.9 612 600.5" enable-background="new 0 94.9 612 600.5" xml:space="preserve">
<circle fill="#D3D3D3" stroke="#CECECE" stroke-width="11" stroke-miterlimit="10" cx="306" cy="396" r="276"/>
<path fill="#FFFFFF" d="M333.7,396.3c0,72.6,0,144,0,215.8c-28.9,0-56.8,0-85.5,0c0-71.1,0-141.9,0-213.9c-15.3,0-29.9,0-45.1,0
	c0-24.8,0-48.4,0-72.7c14.5,0,28.9,0,44.7,0c0-3.5,0-6.4,0-9.2c0-18.3-0.3-36.7,0.1-55c0.8-40.3,21.1-66.8,60.7-72.7
	c29.6-4.5,60.1-3.3,90.9-4.7c0,26.1,0,50.2,0,75.7c-9.1,0-18.1-0.1-27.2,0c-8.1,0.1-16.2,0-24.2,0.7c-9.3,0.8-13.8,5.2-14,14.5
	c-0.4,16.4-0.1,32.8-0.1,50.1c22.1,0,43.7,0,66,0c-2.2,24.2-4.2,47.5-6.3,71.4C373.9,396.3,354.6,396.3,333.7,396.3z"/>
</svg>
