<?xml version="1.0" encoding="utf-8"?>
<!-- Generator: Adobe Illustrator 18.1.0, SVG Export Plug-In . SVG Version: 6.00 Build 0)  -->
<!DOCTYPE svg PUBLIC "-//W3C//DTD SVG 1.1//EN" "http://www.w3.org/Graphics/SVG/1.1/DTD/svg11.dtd">
<svg version="1.1" id="Layer_1" xmlns="http://www.w3.org/2000/svg" xmlns:xlink="http://www.w3.org/1999/xlink" x="0px" y="0px"
	 viewBox="182.6 0 590.7 560" enable-background="new 182.6 0 590.7 560" xml:space="preserve">
<circle fill="#7A7A7A" stroke="#CECECE" stroke-width="11" stroke-miterlimit="10" cx="480" cy="280" r="266.4"/>
<path fill="#CECECE" d="M506.7,280.3c0,70.1,0,139,0,208.3c-27.9,0-54.8,0-82.5,0c0-68.6,0-137,0-206.5c-14.8,0-28.9,0-43.5,0
	c0-23.9,0-46.7,0-70.2c14,0,27.9,0,43.1,0c0-3.4,0-6.2,0-8.9c0-17.7-0.3-35.4,0.1-53.1c0.8-38.9,20.4-64.5,58.6-70.2
	c28.6-4.3,58-3.2,87.7-4.5c0,25.2,0,48.5,0,73.1c-8.8,0-17.5-0.1-26.3,0c-7.8,0.1-15.6,0-23.4,0.7c-9,0.8-13.3,5-13.5,14
	c-0.4,15.8-0.1,31.7-0.1,48.4c21.3,0,42.2,0,63.7,0c-2.1,23.4-4.1,45.8-6.1,68.9C545.5,280.3,526.9,280.3,506.7,280.3z"/>
</svg>
