<?xml version="1.0" encoding="utf-8"?>
<!-- Generator: Adobe Illustrator 18.1.0, SVG Export Plug-In . SVG Version: 6.00 Build 0)  -->
<!DOCTYPE svg PUBLIC "-//W3C//DTD SVG 1.1//EN" "http://www.w3.org/Graphics/SVG/1.1/DTD/svg11.dtd">
<svg version="1.1" id="Layer_1" xmlns="http://www.w3.org/2000/svg" xmlns:xlink="http://www.w3.org/1999/xlink" x="0px" y="0px"
	 viewBox="0 77.8 612 594.9" enable-background="new 0 77.8 612 594.9" xml:space="preserve">
<circle fill="#D3D3D3" stroke="#CECECE" stroke-width="11" stroke-miterlimit="10" cx="301.3" cy="376" r="273"/>
<g>
	<path fill="#FFFFFF" d="M284,440.7c-0.3,0.9-0.7,1.5-0.8,2.3c-3.2,12.5-6.4,25-9.5,37.5c-1.9,7.6-3.9,15.2-5.8,22.8
		c-3.2,11.7-8,22.8-13.5,33.5c-7.9,15.1-17.2,29.1-27.7,42.5c-0.5,0.7-1,1.3-1.6,1.9c-2,1.8-4.8,1-5.3-1.6c-0.5-2.6-0.8-5.2-1.2-7.9
		c-1.2-9.3-1.9-18.8-2.4-28.2c-0.3-7.4-0.3-14.9,0.1-22.2c0.3-5.3,0.7-10.6,1.3-15.8c0.8-6.5,2.2-12.7,3.6-19
		c5.6-23.9,11.3-47.8,16.9-71.6c3.9-16.5,7.8-33,11.7-49.4c0.4-1.5,0.3-2.9-0.3-4.3c-5.1-12.7-7.1-25.8-6.5-39.5
		c0.4-9.2,2.3-18,5.9-26.5c3.5-8.1,8.4-15.2,15.2-20.9c5.4-4.6,11.7-7.5,18.9-8.5c4.5-0.7,8.8-0.4,13.2,0.5
		c8.7,1.9,15,7.1,19.1,14.9c2.5,4.7,3.8,9.8,4.2,15.2c0.6,7.8-0.5,15.4-2.3,23c-2.6,11.5-6.1,22.6-9.6,33.9
		c-3.2,10.5-6.5,20.8-8.8,31.5c-2.4,10.6-0.5,20.5,6,29.2c5.7,7.7,13.6,12.3,23.1,13.9c12.3,2.2,23.8-0.4,34.4-6.8
		c8-4.8,14.6-11.3,20.1-18.8c7.2-9.5,12.4-20.2,16.5-31.4c4-11,6.7-22.2,8.4-33.8c1.8-11.9,2.7-23.8,2.5-35.8c-0.2-11-2-21.7-6-32
		c-8.3-21.8-23.6-37.1-45-46.2c-8.5-3.6-17.4-5.8-26.5-7.2c-9.6-1.4-19.3-1.6-28.8-1c-23,1.5-44.1,8.6-62.6,22.8
		c-12.5,9.5-22.4,21.2-29.7,35c-6.3,11.8-10.4,24.4-12.2,37.6c-1.1,8.4-1.5,16.9-0.7,25.3c1.3,13.7,5.9,26.1,14.9,36.8
		c0.5,0.6,1,1.3,1.6,1.9c2.6,3,3.1,6.4,2.2,10.1c-1.3,5-2.6,10-3.8,15.1c-0.5,1.9-0.9,3.9-1.5,5.8c-0.9,2.7-2.6,4.6-5.3,5.4
		c-1.2,0.4-2.6,0.5-3.8,0.1c-1.3-0.4-2.7-0.8-3.9-1.3c-12.4-5.4-22.1-13.9-29.6-25.2c-6-9-9.9-18.9-12.6-29.3
		c-3.4-13.1-4.5-26.4-4-40c0.5-13,3.2-25.6,7.5-37.8c12.3-34.3,34.4-60.4,65.6-78.9c7.6-4.5,15.6-8.1,23.7-11.5
		c10.8-4.4,21.8-7.3,33.2-9.3c5.6-1,11.3-1.7,17-2.3c7-0.6,13.9-1,20.9-0.9c19.4,0.2,38.4,3.1,56.6,10
		c29.2,11.2,53.1,29.2,70.1,55.7c9.6,14.9,15.8,31.1,18.7,48.6c1,6.1,1.5,12.4,1.5,18.7c0,7.4-0.1,14.9-0.8,22.2
		c-2.4,24.9-8.2,48.8-19.7,71.1c-7.3,14.1-16.5,26.8-28.1,37.8c-4.9,4.6-10.4,8.7-16,12.6c-11.7,8-24.6,13-38.4,15.9
		c-9.5,1.9-19.4,2.8-29.1,1.9c-14.3-1.2-27.5-5.9-38.8-14.9c-4.3-3.3-8.1-7.2-11-11.8C284.8,441.8,284.5,441.4,284,440.7z"/>
</g>
</svg>
