<?xml version="1.0" encoding="utf-8"?>
<!-- Generator: Adobe Illustrator 18.1.0, SVG Export Plug-In . SVG Version: 6.00 Build 0)  -->
<!DOCTYPE svg PUBLIC "-//W3C//DTD SVG 1.1//EN" "http://www.w3.org/Graphics/SVG/1.1/DTD/svg11.dtd">
<svg version="1.1" id="Layer_1" xmlns="http://www.w3.org/2000/svg" xmlns:xlink="http://www.w3.org/1999/xlink" x="0px" y="0px"
	 viewBox="184.8 0 597.2 560" enable-background="new 184.8 0 597.2 560" xml:space="preserve">
<circle fill="#7A7A7A" stroke="#CECECE" stroke-width="11" stroke-miterlimit="10" cx="480" cy="280" r="266.4"/>
<g>
	<path fill="#CECECE" d="M463.1,343.1c-0.3,0.9-0.7,1.5-0.8,2.2c-3.1,12.2-6.2,24.4-9.3,36.6c-1.9,7.4-3.8,14.8-5.7,22.2
		c-3.1,11.4-7.8,22.2-13.2,32.7c-7.7,14.7-16.8,28.4-27,41.5c-0.5,0.7-1,1.3-1.6,1.9c-2,1.8-4.7,1-5.2-1.6c-0.5-2.5-0.8-5.1-1.2-7.7
		c-1.2-9.1-1.9-18.3-2.3-27.5c-0.3-7.2-0.3-14.5,0.1-21.7c0.3-5.2,0.7-10.3,1.3-15.4c0.8-6.3,2.1-12.4,3.5-18.5
		c5.5-23.3,11-46.6,16.5-69.9c3.8-16.1,7.6-32.2,11.4-48.2c0.4-1.5,0.3-2.8-0.3-4.2c-5-12.4-6.9-25.2-6.3-38.5
		c0.4-9,2.2-17.6,5.8-25.9c3.4-7.9,8.2-14.8,14.8-20.4c5.3-4.5,11.4-7.3,18.4-8.3c4.4-0.7,8.6-0.4,12.9,0.5
		c8.5,1.9,14.6,6.9,18.6,14.5c2.4,4.6,3.7,9.6,4.1,14.8c0.6,7.6-0.5,15-2.2,22.4c-2.5,11.2-6,22.1-9.4,33.1
		c-3.1,10.2-6.3,20.3-8.6,30.7c-2.3,10.3-0.5,20,5.9,28.5c5.6,7.5,13.3,12,22.5,13.6c12,2.1,23.2-0.4,33.6-6.6
		c7.8-4.7,14.2-11,19.6-18.3c7-9.3,12.1-19.7,16.1-30.6c3.9-10.7,6.5-21.7,8.2-33c1.8-11.6,2.6-23.2,2.4-34.9
		c-0.2-10.7-2-21.2-5.9-31.2c-8.1-21.3-23-36.2-43.9-45.1c-8.3-3.5-17-5.7-25.9-7c-9.4-1.4-18.8-1.6-28.1-1
		c-22.4,1.5-43,8.4-61.1,22.2c-12.2,9.3-21.9,20.7-29,34.2c-6.1,11.5-10.1,23.8-11.9,36.7c-1.1,8.2-1.5,16.5-0.7,24.7
		c1.3,13.4,5.8,25.5,14.5,35.9c0.5,0.6,1,1.3,1.6,1.9c2.5,2.9,3,6.2,2.1,9.9c-1.3,4.9-2.5,9.8-3.7,14.7c-0.5,1.9-0.9,3.8-1.5,5.7
		c-0.9,2.6-2.5,4.5-5.2,5.3c-1.2,0.4-2.5,0.5-3.7,0.1c-1.3-0.4-2.6-0.8-3.8-1.3c-12.1-5.3-21.6-13.6-28.9-24.6
		c-5.9-8.8-9.7-18.4-12.3-28.6c-3.3-12.8-4.4-25.8-3.9-39c0.5-12.7,3.1-25,7.3-36.9c12-33.5,33.6-58.9,64-77
		c7.4-4.4,15.2-7.9,23.1-11.2c10.5-4.3,21.3-7.1,32.4-9.1c5.5-1,11-1.7,16.6-2.2c6.8-0.6,13.6-1,20.4-0.9c18.9,0.2,37.5,3,55.2,9.8
		c28.5,10.9,51.8,28.5,68.4,54.4c9.4,14.5,15.4,30.3,18.2,47.4c1,6,1.5,12.1,1.5,18.2c0,7.2-0.1,14.5-0.8,21.7
		c-2.3,24.3-8,47.6-19.2,69.4c-7.1,13.8-16.1,26.2-27.4,36.9c-4.8,4.5-10.1,8.5-15.6,12.3c-11.4,7.8-24,12.7-37.5,15.5
		c-9.3,1.9-18.9,2.7-28.4,1.9c-14-1.2-26.8-5.8-37.9-14.5c-4.2-3.2-7.9-7-10.7-11.5C463.9,344.2,463.6,343.8,463.1,343.1z"/>
</g>
</svg>
