<?xml version="1.0" encoding="utf-8"?>
<!-- Generator: Adobe Illustrator 18.1.0, SVG Export Plug-In . SVG Version: 6.00 Build 0)  -->
<!DOCTYPE svg PUBLIC "-//W3C//DTD SVG 1.1//EN" "http://www.w3.org/Graphics/SVG/1.1/DTD/svg11.dtd">
<svg version="1.1" id="Layer_1" xmlns="http://www.w3.org/2000/svg" xmlns:xlink="http://www.w3.org/1999/xlink" x="0px" y="0px"
	 viewBox="186.8 0 594 560" enable-background="new 186.8 0 594 560" xml:space="preserve">
<circle fill="#7A7A7A" stroke="#CECECE" stroke-width="11" stroke-miterlimit="10" cx="480" cy="280" r="266.4"/>
<path fill="#CECECE" d="M299.6,394.5c39.7,2.9,75.4-6.9,108.2-31.4c-20.6-1.3-37.5-8.5-51.3-22.5c-8.1-8.2-14-17.7-17.6-29.2
	c10.8,1.4,21,1.8,32-1.3c-42.5-11.4-59.4-47.7-57.9-73.4c5.2,2,10.1,4.2,15.4,5.7c5.1,1.5,10.5,2.2,16.1,2.8
	c-14.9-12-25.3-26.6-29.3-45.4c-4-18.7-1.5-36.4,8.3-53.5c40.2,47.3,90.7,73.2,152.7,77.6c-0.4-2.9-0.6-5.4-1-8
	c-5.5-39.4,23.8-77.6,63.2-82.5c24.1-3,45,3.7,62.8,20.4c1.3,1.3,4.3,1.7,6.2,1.3c14.9-3.3,29-8.9,43.1-17.1
	c-5.8,17.5-16.1,30.3-30.3,40.4c13.7-1.3,26.7-5.2,39.2-10.5c0.4,0.4,0.7,0.8,1.1,1.3c-7.5,8.3-14.7,16.8-22.4,24.9
	c-3.7,3.9-8.3,6.9-12.3,10.5c-1.1,1-2.2,2.9-2.2,4.3c1,35.1-6.3,68.6-21.8,100c-27.4,55.8-70.3,94-130.8,110.4
	c-58.9,15.9-115.2,8.6-168.1-22.6C301.7,395.9,300.7,395.2,299.6,394.5z"/>
</svg>
