<?xml version="1.0" encoding="utf-8"?>
<!-- Generator: Adobe Illustrator 18.1.0, SVG Export Plug-In . SVG Version: 6.00 Build 0)  -->
<!DOCTYPE svg PUBLIC "-//W3C//DTD SVG 1.1//EN" "http://www.w3.org/Graphics/SVG/1.1/DTD/svg11.dtd">
<svg version="1.1" id="Layer_1" xmlns="http://www.w3.org/2000/svg" xmlns:xlink="http://www.w3.org/1999/xlink" x="0px" y="0px"
	 viewBox="0 69.4 612 609.6" enable-background="new 0 69.4 612 609.6" xml:space="preserve">
<circle fill="#D3D3D3" stroke="#CECECE" stroke-width="11" stroke-miterlimit="10" cx="310.5" cy="374.1" r="274.5"/>
<path fill="#FFFFFF" d="M126.7,495c40.9,3,77.7-7.1,111.5-32.4c-21.2-1.3-38.6-8.8-52.9-23.2c-8.3-8.4-14.4-18.2-18.1-30.1
	c11.1,1.4,21.6,1.9,33-1.3c-43.8-11.7-61.2-49.1-59.7-75.6c5.4,2.1,10.4,4.3,15.9,5.9c5.3,1.5,10.8,2.3,16.6,2.9
	c-15.4-12.4-26.1-27.4-30.2-46.8c-4.1-19.3-1.5-37.5,8.6-55.1c41.4,48.7,93.4,75.4,157.3,80c-0.4-3-0.6-5.6-1-8.2
	c-5.7-40.6,24.5-80,65.1-85c24.8-3.1,46.4,3.8,64.7,21c1.3,1.3,4.4,1.8,6.4,1.3c15.4-3.4,29.9-9.2,44.4-17.6
	c-6,18-16.6,31.2-31.2,41.6c14.1-1.3,27.5-5.4,40.4-10.8c0.4,0.4,0.7,0.8,1.1,1.3c-7.7,8.6-15.1,17.3-23.1,25.7
	c-3.8,4-8.6,7.1-12.7,10.8c-1.1,1-2.3,3-2.3,4.4c1,36.2-6.5,70.7-22.5,103c-28.2,57.5-72.4,96.8-134.8,113.7
	c-60.7,16.4-118.7,8.9-173.2-23.3C128.8,496.5,127.8,495.8,126.7,495z"/>
</svg>
