<?xml version="1.0" encoding="utf-8"?>
<!-- Generator: Adobe Illustrator 18.1.0, SVG Export Plug-In . SVG Version: 6.00 Build 0)  -->
<!DOCTYPE svg PUBLIC "-//W3C//DTD SVG 1.1//EN" "http://www.w3.org/Graphics/SVG/1.1/DTD/svg11.dtd">
<svg version="1.1" id="Layer_1" xmlns="http://www.w3.org/2000/svg" xmlns:xlink="http://www.w3.org/1999/xlink" x="0px" y="0px"
	 viewBox="27.4 128.1 582.9 597.8" enable-background="new 27.4 128.1 582.9 597.8" xml:space="preserve">
<circle fill="#FCFCFC" stroke="#C9C9C9" stroke-width="11" stroke-miterlimit="10" cx="320.6" cy="432.3" r="277.7"/>
<g enable-background="new    ">
	<path d="M539.9,324.6v58.7H386.2v73.5h133.1v54.3H386.2v131.4h-69.9V324.6H539.9z"/>
</g>
<g enable-background="new    ">
	<path fill="#E50505" d="M335.2,442.2c3.4-2.2,5.6-2.7,6.5-1.6c0.8,1,0.4,3-1.3,5.8s-4.2,6.2-7.8,10c-3.6,3.9-7.9,7.6-12.8,11.1
		c-5,3.4-10.4,6.5-16.5,9.1c-6,2.5-12.3,3.9-18.7,3.9c-14.7,0-24.1-5.5-27.9-16.5c-3.9-10.9-0.5-28,10.2-51.1
		c-10.4,1.6-20.7,2-31,1.3c-10.2-0.8-20.2-2.2-30.1-4.1c-9.1,10.4-18.1,20.3-27.1,29.7s-17.5,17.8-25.5,25.3
		c-8,7.5-15.5,13.7-22.3,18.5c-6.8,4.8-12.8,7.8-17.9,8.9c-5.9,1.6-11.7,1-17.3-1.8c-5.6-2.8-10.1-6.5-13.4-10.8
		c-3.3-4.4-5-9.1-5-13.9c0-4.8,2.7-8.8,8-11.7c10.2-5.3,21.2-12.7,32.7-21.9c11.7-9.3,23.8-19.9,36.4-32c-8.5-1-16.7-1.3-24.3-0.6
		c-7.6,0.6-14.9,2.9-21.9,6.7c-4.3,2.4-7.3,2.9-9.1,1.4c-1.8-1.5-2.5-4-2.2-7.4c0.3-3.4,1.5-7.6,3.4-12.5c2-4.9,4.5-9.5,7.4-14.1
		c2.9-4.6,6.3-8.7,10-12.3c3.8-3.6,7.5-5.9,11.3-7.1c10.2-2.7,20.5-3.2,31.2-1.6c10.6,1.6,21.4,4.3,32.4,8
		c13.4-14.5,26.4-29.3,39-44.4c12.6-15.1,24.2-29.6,34.8-43.3s19.8-26.1,27.7-37.2c7.9-11.2,13.9-20,17.9-26.8
		c4.1-6.2,9.5-10.4,16.5-12.7s13.9-2.7,20.7-1.3c6.9,1.5,12.7,4.7,17.7,9.7c5,5,7.3,11.5,7.1,19.5c0,7.2-1.1,16.2-3.4,26.8
		c-2.3,10.6-5.3,22.2-9.3,34.8c-3.9,12.6-8.1,25.6-12.8,39c-4.7,13.4-9.5,26.4-14.5,38.8c-5,12.5-9.7,24.1-14.1,34.8
		c-4.4,10.7-8.2,19.6-11.5,26.6c-2.9,6.5-4.4,11.6-4.2,15.5c0.1,3.9,1.5,6.6,4.1,8c2.5,1.5,6.2,1.7,10.8,0.6
		C323.7,448.5,329.1,446.1,335.2,442.2z M315.5,268.1c-2.2,3.4-5.7,8.8-10.8,15.8c-5.1,7.1-11.3,15.5-18.5,25.1
		c-7.2,9.7-15.3,20.2-24.1,31.6c-8.9,11.4-18.1,23-27.7,34.8c7.8,2.7,15.4,5,22.9,6.9c7.5,1.9,15,3.1,22.5,3.6
		c4.6-9.9,9.1-20.5,13.4-32c4.4-11.4,8.3-22.4,11.9-33.2c3.4-10.7,6.2-20.7,8-29.9C315,281.7,315.8,274.1,315.5,268.1z"/>
</g>
</svg>
