<?xml version="1.0" encoding="utf-8"?>
<!-- Generator: Adobe Illustrator 18.1.0, SVG Export Plug-In . SVG Version: 6.00 Build 0)  -->
<!DOCTYPE svg PUBLIC "-//W3C//DTD SVG 1.1//EN" "http://www.w3.org/Graphics/SVG/1.1/DTD/svg11.dtd">
<svg version="1.1" id="Layer_1" xmlns="http://www.w3.org/2000/svg" xmlns:xlink="http://www.w3.org/1999/xlink" x="0px" y="0px"
	 viewBox="0 0 195.7 195.7" enable-background="new 0 0 195.7 195.7" xml:space="preserve">
<g>
	<circle fill="#FFFFFF" stroke="#E22027" stroke-width="8" stroke-miterlimit="10" cx="97.5" cy="97.8" r="91.8"/>
	<g>
		<path d="M153.7,144.2H40.3V49.1h113.3V144.2z M44.5,140.1h105.1V53.2H44.5V140.1z"/>
	</g>
	<g>
		<rect x="83.1" y="61.5" fill="#FFFFFF" width="21.4" height="17.8"/>
		<path d="M106.6,81.4H81.1v-22h25.5V81.4z M85.2,77.3h17.2V63.6H85.2V77.3z"/>
	</g>
	<g>
		<rect x="83.1" y="88.1" fill="#FFFFFF" width="21.4" height="17.8"/>
		<path d="M106.6,108H81.1v-22h25.5V108z M85.2,103.9h17.2V90.2H85.2V103.9z"/>
	</g>
	<g>
		<rect x="83.1" y="114.1" fill="#FFFFFF" width="21.4" height="17.8"/>
		<path d="M106.6,134H81.1v-22h25.5V134z M85.2,129.9h17.2v-13.7H85.2V129.9z"/>
	</g>
	<g>
		<rect x="118.4" y="61" fill="#FFFFFF" width="21.4" height="17.8"/>
		<path d="M141.8,80.9h-25.5V59h25.5V80.9z M120.4,76.8h17.2V63.1h-17.2V76.8z"/>
	</g>
	<g>
		<rect x="118.4" y="87.7" fill="#F1F2F2" width="21.4" height="17.8"/>
		<path d="M141.8,107.5h-25.5v-22h25.5V107.5z M120.4,103.4h17.2V89.7h-17.2V103.4z"/>
	</g>
	<g>
		<rect x="118.4" y="113.7" fill="#F1F2F2" width="21.4" height="17.8"/>
		<path d="M141.8,133.5h-25.5v-22h25.5V133.5z M120.4,129.4h17.2v-13.7h-17.2V129.4z"/>
	</g>
	<g>
		<rect x="48.7" y="59.6" width="26.6" height="8.7"/>
	</g>
	<g>
		<rect x="48.7" y="79.3" width="26.6" height="4.1"/>
	</g>
	<g>
		<rect x="48.7" y="89.1" width="26.6" height="4.1"/>
	</g>
	<g>
		<rect x="48.7" y="97" width="26.6" height="4.1"/>
	</g>
	<g>
		<rect x="48.7" y="113.5" width="26.6" height="4.1"/>
	</g>
	<g>
		<rect x="48.7" y="121.7" width="26.6" height="4.1"/>
	</g>
	<g>
		<rect x="48.7" y="129.8" width="26.6" height="4.1"/>
	</g>
</g>
</svg>
