<?xml version="1.0" encoding="utf-8"?>
<!-- Generator: Adobe Illustrator 18.1.0, SVG Export Plug-In . SVG Version: 6.00 Build 0)  -->
<!DOCTYPE svg PUBLIC "-//W3C//DTD SVG 1.1//EN" "http://www.w3.org/Graphics/SVG/1.1/DTD/svg11.dtd">
<svg version="1.1" id="Layer_1" xmlns="http://www.w3.org/2000/svg" xmlns:xlink="http://www.w3.org/1999/xlink" x="0px" y="0px"
	 viewBox="0 0 196.3 197.5" enable-background="new 0 0 196.3 197.5" xml:space="preserve">
<g>
	<circle fill="#FFFFFF" stroke="#E22027" stroke-width="8" stroke-miterlimit="10" cx="98.3" cy="98.3" r="91.8"/>
	<g>
		<g>
			
				<rect x="36.1" y="63.3" transform="matrix(0.9625 0.2712 -0.2712 0.9625 29.3131 -23.8746)" fill="#FFFFFF" stroke="#000000" stroke-width="5" stroke-miterlimit="10" width="129.9" height="61.7"/>
			<ellipse transform="matrix(0.9625 0.2712 -0.2712 0.9625 28.8753 -23.0563)" cx="97.9" cy="93" rx="23.8" ry="22.9"/>
			<g>
				<path fill="#FFFFFF" d="M103.2,78.7l-0.4,1.3c2.2,1,3.8,2.2,4.7,3.6l-1.1,4c-1-1.9-2.5-3.4-4.5-4.5l-2,7.1
					c1.9,1.2,3.3,2.6,4,4.1c0.8,1.5,0.9,3,0.5,4.6s-1.4,2.8-2.8,3.7c-0.7,0.5-1.5,0.8-2.3,1c-0.8,0.2-1.9,0.2-3.2,0.1l-1.1,3.9
					l-2.9-0.8l1.1-3.9c-1.9-0.7-3.9-2.2-6-4.4l1.2-4.4c0.8,1.3,1.7,2.4,2.5,3.3c0.9,0.9,1.9,1.6,3.1,2.2l2.2-7.6
					c-1.8-1.2-3-2.2-3.6-3c-0.6-0.8-1.1-1.7-1.3-2.6c-0.2-0.9-0.2-1.8,0-2.7c0.5-1.6,1.5-2.9,3-3.7c1.5-0.8,3.4-1.1,5.4-0.8l0.4-1.3
					L103.2,78.7z M97.3,88.4l1.7-6.1c-1-0.1-1.8,0-2.6,0.4c-0.8,0.4-1.2,0.9-1.4,1.7c-0.2,0.7-0.1,1.3,0.1,1.8
					c0.3,0.6,0.9,1.2,1.8,1.9C97.1,88.2,97.2,88.3,97.3,88.4z M99.4,94.3l-0.5-0.4l-1.8,6.4c2.1,0.1,3.4-0.6,3.9-2.2
					c0.2-0.7,0.2-1.3-0.1-1.8C100.7,95.7,100.2,95.1,99.4,94.3z"/>
			</g>
		</g>
		<g>
			
				<rect x="36.1" y="63.3" transform="matrix(0.9935 0.1139 -0.1139 0.9935 11.3767 -10.8944)" fill="#FFFFFF" stroke="#000000" stroke-width="5" stroke-miterlimit="10" width="129.9" height="61.7"/>
			<ellipse transform="matrix(0.9935 0.1139 -0.1139 0.9935 11.2809 -10.5198)" cx="97.7" cy="93.5" rx="23.8" ry="22.9"/>
			<g>
				<path fill="#FFFFFF" d="M100.7,78.5l-0.2,1.3c2.3,0.6,4.1,1.6,5.2,2.8l-0.5,4.1c-1.3-1.7-3-2.9-5.1-3.7l-0.8,7.3
					c2.1,0.9,3.7,2,4.6,3.4c1,1.4,1.4,2.9,1.2,4.5c-0.2,1.6-0.9,3-2.2,4.1c-0.6,0.6-1.3,1-2.1,1.3c-0.8,0.3-1.8,0.5-3.2,0.6l-0.5,4
					l-3-0.3l0.5-4c-2-0.4-4.2-1.5-6.6-3.4l0.5-4.5c1,1.2,2,2.1,3,2.9c1,0.7,2.1,1.3,3.4,1.7l0.9-7.9c-1.9-0.9-3.3-1.7-4-2.4
					c-0.8-0.7-1.3-1.5-1.7-2.4c-0.4-0.9-0.5-1.8-0.4-2.6c0.2-1.7,1-3.1,2.4-4.1c1.4-1,3.1-1.6,5.2-1.6l0.2-1.3L100.7,78.5z
					 M96.4,89.1l0.7-6.3c-1,0-1.8,0.3-2.5,0.8c-0.7,0.5-1.1,1.1-1.2,1.9c-0.1,0.7,0.1,1.3,0.4,1.8c0.4,0.5,1.1,1,2.1,1.6
					C96.2,88.9,96.3,89,96.4,89.1z M99.4,94.6l-0.5-0.4l-0.8,6.7c2.1-0.2,3.3-1.2,3.4-2.8c0.1-0.7,0-1.3-0.3-1.8
					C100.9,95.8,100.3,95.2,99.4,94.6z"/>
			</g>
		</g>
	</g>
</g>
</svg>
