<?xml version="1.0" encoding="utf-8"?>
<!-- Generator: Adobe Illustrator 18.1.0, SVG Export Plug-In . SVG Version: 6.00 Build 0)  -->
<!DOCTYPE svg PUBLIC "-//W3C//DTD SVG 1.1//EN" "http://www.w3.org/Graphics/SVG/1.1/DTD/svg11.dtd">
<svg version="1.1" id="Layer_1" xmlns="http://www.w3.org/2000/svg" xmlns:xlink="http://www.w3.org/1999/xlink" x="0px" y="0px"
	 viewBox="0 177.4 960 204.9" enable-background="new 0 177.4 960 204.9" xml:space="preserve">
<g enable-background="new    ">
	<path fill="#FF0000" d="M180.4,339.3c2.1-1.3,3.5-1.6,3.9-1c0.5,0.7,0.2,1.8-0.7,3.6c-1,1.7-2.6,3.8-4.8,6.2
		c-2.2,2.4-4.9,4.6-7.9,6.8c-3,2.1-6.4,4-10.1,5.5c-3.7,1.6-7.5,2.3-11.5,2.3c-9,0-14.8-3.4-17.1-10.1c-2.4-6.7-0.3-17.2,6.3-31.3
		c-6.4,1-12.7,1.2-19,0.7c-6.3-0.5-12.4-1.3-18.5-2.5c-5.6,6.4-11.1,12.5-16.6,18.3c-5.5,5.8-10.7,10.9-15.7,15.5
		c-4.9,4.6-9.5,8.4-13.7,11.3c-4.2,3-7.9,4.8-11,5.4c-3.6,1-7.2,0.6-10.6-1.1s-6.2-3.9-8.3-6.7c-2.1-2.7-3.1-5.5-3.1-8.5
		c0-3,1.6-5.3,4.9-7.2c6.2-3.3,12.9-7.8,20.1-13.4c7.2-5.7,14.6-12.2,22.3-19.6c-5.3-0.7-10.2-0.8-14.9-0.4
		c-4.7,0.4-9.2,1.8-13.4,4.1c-2.6,1.5-4.5,1.8-5.5,0.9c-1.1-0.9-1.5-2.4-1.4-4.6c0.2-2.1,0.9-4.7,2.1-7.6c1.2-3,2.8-5.8,4.6-8.6
		c1.8-2.8,3.9-5.3,6.2-7.5c2.3-2.2,4.6-3.7,6.9-4.3c6.2-1.6,12.6-2,19.1-1c6.5,1,13.1,2.6,19.9,4.9c8.2-8.9,16.2-18,23.9-27.3
		c7.7-9.3,14.8-18.1,21.3-26.5c6.5-8.4,12.2-16,17-22.8c4.8-6.8,8.5-12.3,11-16.4c2.5-3.8,5.8-6.4,10.1-7.8
		c4.3-1.4,8.5-1.6,12.7-0.7c4.2,0.9,7.8,2.9,10.9,5.9c3,3,4.5,7,4.3,12c0,4.4-0.7,9.9-2.1,16.4c-1.4,6.5-3.3,13.6-5.7,21.3
		c-2.4,7.7-5,15.7-7.9,23.9c-2.9,8.2-5.8,16.2-8.9,23.8c-3,7.6-5.9,14.8-8.6,21.3c-2.7,6.6-5.1,12-7,16.3c-1.8,3.9-2.7,7.1-2.6,9.5
		c0.1,2.4,0.9,4,2.5,4.9c1.6,0.9,3.8,1,6.7,0.4C173.3,343.1,176.6,341.6,180.4,339.3z M168.3,232.5c-1.3,2.1-3.5,5.4-6.7,9.7
		c-3.1,4.4-6.9,9.5-11.3,15.4c-4.4,5.9-9.4,12.4-14.8,19.4c-5.4,7-11.1,14.1-17,21.3c4.8,1.6,9.5,3,14.1,4.2
		c4.6,1.2,9.2,1.9,13.8,2.2c2.8-6.1,5.5-12.6,8.3-19.6c2.7-7,5.1-13.8,7.3-20.3c2.1-6.6,3.8-12.7,4.9-18.4
		C168,240.8,168.5,236.1,168.3,232.5z"/>
</g>
<g enable-background="new    ">
	<path fill="#FF0000" d="M261.3,334.1c2.5-1.6,4.1-2,4.5-1.2c0.5,0.8,0.2,2.2-0.9,4.3c-1.1,2.1-2.9,4.5-5.6,7.3
		c-2.6,2.8-5.8,5.5-9.4,8.1c-3.6,2.5-7.6,4.7-12,6.6c-4.4,1.9-8.9,2.8-13.6,2.8c-5.7,0-9.7-1.3-12-4s-3.7-6.1-4-10.3
		c-0.3-4.2,0.3-8.8,1.8-13.9c1.5-5.1,3.2-10.2,5.1-15.2c1-2.3,2.2-5,3.7-7.9s3-6,4.7-9.2c1.7-3.2,3.4-6.4,5.1-9.7
		c1.8-3.2,3.4-6.2,5-8.9c-3.3-0.4-6.3-0.9-8.9-1.6c-2.6-0.7-4.9-1.4-6.9-2.2c-4.5,10.2-9.2,19.8-14.1,28.9
		c-4.9,9.1-9.8,17.1-14.8,23.9c-5,6.8-9.8,12.4-14.5,16.6c-4.7,4.2-8.9,6.5-12.6,6.9c-1.8,0.2-2.9-0.2-3.5-1.3
		c-0.6-1.1-0.7-2.4-0.3-4.1c0.4-1.7,1.2-3.4,2.3-5.1c1.2-1.8,2.5-3.2,4.1-4.4c5.3-3.7,10.1-8.3,14.4-13.8
		c4.3-5.5,8.2-11.2,11.6-17.3c3.4-6.1,6.4-12.3,9.1-18.6c2.6-6.3,4.9-12.3,6.9-17.7c-3.5-3.5-5.6-8.1-6.2-13.6
		c-0.6-5.6-0.1-11,1.3-16.3s3.8-9.8,6.9-13.6c3.1-3.8,6.7-5.7,10.8-5.7c3.3,0,6,1,7.9,2.9c2,2,3.1,4.6,3.5,7.9
		c0.4,3.3,0.1,7.1-0.7,11.4c-0.9,4.3-2.5,8.8-4.8,13.5c4.1,2.2,8.7,3.1,13.8,2.9c5.1-0.2,9.9-0.6,14.4-1.2c2.5-0.2,4.9,0.1,7,0.7
		c2.1,0.7,3.7,1.9,4.7,3.5c1,1.7,1.4,3.7,1.2,6.2c-0.2,2.4-1.4,5.3-3.5,8.6c-2,3.3-4,6.8-6.2,10.6c-2.2,3.7-4.2,7.4-6,11.1
		c-1.9,3.7-3.6,7.3-5.3,10.7c-1.7,3.4-3,6.5-4,9.2c-2.9,8.2-2.6,13.6,1,16.3C246,340.7,252.3,339.4,261.3,334.1z"/>
	<path fill="#FF0000" d="M278.6,228.3c2.1,2,6.3,3.5,12.3,4.7c6.1,1.2,12.6,1.9,19.6,2.1c1.6-3.1,2.9-6,4.1-8.5
		c1.2-2.5,2.1-4.6,2.6-6.2c0.8-2.1,2.7-3.7,5.9-4.5c3.1-0.9,6.3-1.3,9.5-1.2c3.2,0.1,6,0.6,8.4,1.6c2.3,1,3.2,2.3,2.6,4.1
		c-1.4,3.9-3.1,8.2-5.3,12.9c3.5-0.6,6.4-1.5,8.8-2.6c3.3-1.6,5.3-1.3,5.9,0.9c0.6,2.2-1.6,5.5-6.4,10c-1.6,1.6-3.6,2.8-6.2,3.8
		c-2.5,1-5.5,1.9-8.8,2.6c-3.3,7-6.9,14.4-10.8,22c-3.9,7.6-7.6,14.9-11.1,21.8c-3.5,6.9-6.6,13.1-9.4,18.5
		c-2.7,5.4-4.6,9.2-5.6,11.6c-2.2,5.1-2.7,9-1.8,11.9c1,2.8,2.9,4.7,5.7,5.7c2.8,1,6.3,1,10.6,0.1c4.2-0.9,8.5-2.7,12.8-5.4
		c2.5-1.6,4.1-2,4.7-1.2c0.6,0.8,0.3,2.2-0.9,4.3c-1.2,2.1-3.1,4.5-5.9,7.3c-2.7,2.8-6.2,5.5-10.3,8.1c-4.1,2.5-8.8,4.7-14.1,6.6
		c-5.3,1.9-10.9,2.8-17,2.8c-5.7,0-10-1.2-12.9-3.5c-2.9-2.3-4.7-5.5-5.4-9.5c-0.7-4-0.4-8.6,0.7-13.8c1.2-5.2,3.1-10.7,5.9-16.6
		c1.8-3.7,4-8.2,6.6-13.5c2.6-5.3,5.6-10.9,8.8-16.9c3.2-6,6.5-12.1,9.8-18.3c3.3-6.3,6.5-12.3,9.7-18.2c-5.5,0-10.6-0.2-15.2-0.7
		c-4.7-0.5-8.7-1.2-12-2.2c-3.9-1.2-6.3-3.2-7.2-6.2s-0.9-5.8,0-8.5c0.9-2.7,2.4-4.8,4.5-6.3C274,226.4,276.2,226.5,278.6,228.3z"/>
	<path fill="#FF0000" d="M412.8,274.9c1.8-2.7,3-4.4,3.8-5c1.6-1.6,4-2.7,7.3-3.5c3.3-0.8,6.5-1.2,9.7-1.2c3.1,0,5.7,0.4,7.8,1.3
		c2.1,0.9,2.5,2,1.3,3.4c-2.5,3.7-5.1,7.9-7.8,12.5c-2.6,4.6-5.2,9.2-7.8,13.9c-2.5,4.7-4.8,9.2-6.9,13.6s-3.7,8.4-4.8,11.9
		c-2.9,8.2-2.6,13.6,1,16.3c3.6,2.6,9.8,1.3,18.6-4c2.5-1.6,4.1-2,4.7-1.2c0.6,0.8,0.3,2.2-0.9,4.3c-1.2,2.1-3,4.5-5.6,7.3
		c-2.5,2.8-5.6,5.5-9.1,8.1c-3.5,2.5-7.5,4.7-11.9,6.6c-4.4,1.9-8.9,2.8-13.6,2.8c-5.5,0-9.4-1.2-11.9-3.7c-2.4-2.4-3.9-5.6-4.3-9.5
		c-5.3,4.1-10.6,7.4-16,10c-5.4,2.5-10.5,4.1-15.4,4.7c-4.9,0.6-9.4,0.3-13.5-0.9c-4.1-1.2-7.5-3.4-10.3-6.7
		c-2.9-3.7-4.7-8.4-5.3-13.9c-0.6-5.6-0.1-11.5,1.6-17.7c1.7-6.3,4.4-12.7,8.2-19.3c3.8-6.6,8.5-12.9,14.2-18.8
		c5.7-5.9,11.6-10.6,17.7-14.4c6.2-3.7,12.1-6.3,17.9-7.6c5.8-1.4,11.1-1.5,16.1-0.4c5,1.1,9,3.5,12.2,7.2L412.8,274.9z
		 M384.7,321.2c4.5-6.6,8-12.8,10.6-18.3c2.5-5.6,2.7-9.7,0.6-12.5c-1.2-1.4-2.8-2.2-5-2.5c-2.2-0.3-4.7,0.1-7.6,1
		c-2.9,1-6,2.6-9.2,4.8c-3.2,2.2-6.4,5.2-9.5,8.9c-5.3,6.3-8.7,12.3-10.3,18c-1.6,5.8-1.3,10.1,0.9,13c1.2,1.4,2.9,2.2,5.1,2.3
		c2.2,0.2,4.7-0.2,7.5-1.2c2.7-1,5.6-2.6,8.6-4.8C379.4,327.9,382.1,325,384.7,321.2z"/>
</g>
<g enable-background="new    ">
	<path d="M578.8,187.3v33.2h-86.7v41.5h75.1v30.7h-75.1v74.1h-39.5V187.3H578.8z"/>
</g>
<g enable-background="new    ">
	<path d="M578.6,273.6c3.2-8.5,7.7-15.7,13.6-21.6c5.9-5.9,12.9-10.6,21.1-13.8c8.2-3.3,17.4-4.9,27.6-4.9c10.2,0,19.5,1.6,27.8,4.9
		c8.3,3.3,15.4,7.9,21.2,13.8c5.9,5.9,10.4,13.2,13.6,21.6c3.2,8.5,4.8,17.9,4.8,28.3c0,10.4-1.6,19.8-4.8,28.1
		c-3.2,8.4-7.7,15.5-13.6,21.5c-5.9,5.9-12.9,10.5-21.2,13.7c-8.3,3.2-17.6,4.8-27.8,4.8c-10.2,0-19.4-1.6-27.6-4.8
		c-8.2-3.2-15.2-7.7-21.1-13.7c-5.9-5.9-10.4-13.1-13.6-21.5c-3.2-8.4-4.8-17.8-4.8-28.1C573.8,291.5,575.4,282,578.6,273.6z
		 M611,317c1,4.9,2.7,9.4,5.2,13.3c2.4,3.9,5.7,7.1,9.7,9.4c4,2.3,9,3.5,15.1,3.5c6,0,11.1-1.2,15.2-3.5c4.1-2.3,7.4-5.5,9.8-9.4
		c2.4-3.9,4.1-8.4,5.2-13.3c1-4.9,1.5-10,1.5-15.2c0-5.2-0.5-10.3-1.5-15.3c-1-5-2.7-9.5-5.2-13.3c-2.4-3.9-5.7-7-9.8-9.4
		c-4.1-2.4-9.2-3.6-15.2-3.6c-6,0-11.1,1.2-15.1,3.6c-4,2.4-7.2,5.6-9.7,9.4c-2.4,3.9-4.1,8.3-5.2,13.3c-1,5-1.5,10.1-1.5,15.3
		C609.5,307,610,312.1,611,317z"/>
	<path d="M754.2,187.3v179.4h-35.7V187.3H754.2z"/>
	<path d="M769.6,216.7v-29.4h35.7v29.4H769.6z M805.2,236.8v129.9h-35.7V236.8H805.2z"/>
</g>
<g enable-background="new    ">
	<path d="M816.4,273.6c3.2-8.5,7.7-15.7,13.6-21.6c5.9-5.9,12.9-10.6,21.1-13.8c8.2-3.3,17.4-4.9,27.6-4.9c10.2,0,19.5,1.6,27.8,4.9
		c8.3,3.3,15.4,7.9,21.2,13.8c5.9,5.9,10.4,13.2,13.6,21.6c3.2,8.5,4.8,17.9,4.8,28.3c0,10.4-1.6,19.8-4.8,28.1
		c-3.2,8.4-7.7,15.5-13.6,21.5c-5.9,5.9-12.9,10.5-21.2,13.7c-8.3,3.2-17.6,4.8-27.8,4.8c-10.2,0-19.4-1.6-27.6-4.8
		c-8.2-3.2-15.2-7.7-21.1-13.7c-5.9-5.9-10.4-13.1-13.6-21.5c-3.2-8.4-4.8-17.8-4.8-28.1C811.6,291.5,813.2,282,816.4,273.6z
		 M848.8,317c1,4.9,2.7,9.4,5.2,13.3c2.4,3.9,5.7,7.1,9.7,9.4c4,2.3,9,3.5,15.1,3.5c6,0,11.1-1.2,15.2-3.5c4.1-2.3,7.4-5.5,9.8-9.4
		c2.4-3.9,4.1-8.4,5.2-13.3c1-4.9,1.5-10,1.5-15.2c0-5.2-0.5-10.3-1.5-15.3c-1-5-2.7-9.5-5.2-13.3c-2.4-3.9-5.7-7-9.8-9.4
		c-4.1-2.4-9.2-3.6-15.2-3.6c-6,0-11.1,1.2-15.1,3.6c-4,2.4-7.2,5.6-9.7,9.4c-2.4,3.9-4.1,8.3-5.2,13.3c-1,5-1.5,10.1-1.5,15.3
		C847.3,307,847.8,312.1,848.8,317z"/>
</g>
</svg>
