<?xml version="1.0" encoding="utf-8"?>
<!-- Generator: Adobe Illustrator 18.1.0, SVG Export Plug-In . SVG Version: 6.00 Build 0)  -->
<!DOCTYPE svg PUBLIC "-//W3C//DTD SVG 1.1//EN" "http://www.w3.org/Graphics/SVG/1.1/DTD/svg11.dtd">
<svg version="1.1" id="Layer_1" xmlns="http://www.w3.org/2000/svg" xmlns:xlink="http://www.w3.org/1999/xlink" x="0px" y="0px"
	 viewBox="373 0 587 560" enable-background="new 373 0 587 560" xml:space="preserve">
<circle fill="#7A7A7A" stroke="#CECECE" stroke-width="11" stroke-miterlimit="10" cx="664.9" cy="280" r="266.4"/>
<g enable-background="new    ">
	<path fill="#CECECE" d="M875.2,176.7V233H727.8v70.5h127.7v52.1H727.8v126h-67V176.7H875.2z"/>
</g>
<g enable-background="new    ">
	<path fill="#FFFFFF" d="M678.9,289.5c3.3-2.1,5.4-2.6,6.2-1.5c0.8,1,0.4,2.9-1.2,5.6s-4,5.9-7.5,9.6c-3.5,3.7-7.6,7.3-12.3,10.6
		c-4.8,3.3-10,6.2-15.8,8.7c-5.8,2.4-11.8,3.7-17.9,3.7c-14.1,0-23.1-5.3-26.8-15.8c-3.7-10.5-0.5-26.9,9.8-49
		c-10,1.5-19.9,1.9-29.7,1.2c-9.8-0.8-19.4-2.1-28.9-3.9c-8.7,10-17.4,19.5-26,28.5c-8.6,9-16.8,17.1-24.5,24.3
		c-7.7,7.2-14.9,13.1-21.4,17.7s-12.3,7.5-17.2,8.5c-5.7,1.5-11.2,1-16.6-1.7s-9.7-6.2-12.9-10.4s-4.8-8.7-4.8-13.3
		s2.6-8.4,7.7-11.2c9.8-5.1,20.3-12.2,31.4-21c11.2-8.9,22.8-19.1,34.9-30.7c-8.2-1-16-1.2-23.3-0.6c-7.3,0.6-14.3,2.8-21,6.4
		c-4.1,2.3-7,2.8-8.7,1.3c-1.7-1.4-2.4-3.8-2.1-7.1c0.3-3.3,1.4-7.3,3.3-12s4.3-9.1,7.1-13.5c2.8-4.4,6-8.3,9.6-11.8
		c3.6-3.5,7.2-5.7,10.8-6.8c9.8-2.6,19.7-3.1,29.9-1.5c10.2,1.5,20.5,4.1,31.1,7.7c12.9-13.9,25.3-28.1,37.4-42.6
		c12.1-14.5,23.2-28.4,33.4-41.5c10.2-13.1,19-25,26.6-35.7c7.6-10.7,13.3-19.2,17.2-25.7c3.9-5.9,9.1-10,15.8-12.2
		c6.7-2.2,13.3-2.6,19.9-1.2c6.6,1.4,12.2,4.5,17,9.3c4.8,4.8,7,11,6.8,18.7c0,6.9-1.1,15.5-3.3,25.7c-2.2,10.2-5.1,21.3-8.9,33.4
		c-3.7,12.1-7.8,24.6-12.3,37.4c-4.5,12.9-9.1,25.3-13.9,37.2c-4.8,12-9.3,23.1-13.5,33.4c-4.2,10.3-7.9,18.8-11,25.5
		c-2.8,6.2-4.2,11.1-4,14.9c0.1,3.7,1.4,6.3,3.9,7.7c2.4,1.4,5.9,1.6,10.4,0.6C667.8,295.5,673,293.2,678.9,289.5z M660,122.5
		c-2.1,3.3-5.5,8.4-10.4,15.2c-4.9,6.8-10.8,14.9-17.7,24.1c-6.9,9.3-14.7,19.4-23.1,30.3c-8.5,10.9-17.4,22.1-26.6,33.4
		c7.5,2.6,14.8,4.8,22,6.6c7.2,1.8,14.4,3,21.6,3.5c4.4-9.5,8.7-19.7,12.9-30.7c4.2-10.9,8-21.5,11.4-31.8
		c3.3-10.3,5.9-19.9,7.7-28.7C659.5,135.5,660.3,128.2,660,122.5z"/>
</g>
</svg>
